<?xml version="1.0" encoding="utf-8"?>
<!-- Generator: Adobe Illustrator 22.0.0, SVG Export Plug-In . SVG Version: 6.00 Build 0)  -->
<svg version="1.1" id="Layer_1" xmlns="http://www.w3.org/2000/svg" xmlns:xlink="http://www.w3.org/1999/xlink" x="0px" y="0px"
	 viewBox="0 0 20 20" style="enable-background:new 0 0 20 20;" xml:space="preserve">
<style type="text/css">
	.st0{fill:#1D1D1D;}
</style>
<g id="corner-down-right">
	<path d="M18.9,13.4c0.1-0.2,0.1-0.5,0-0.8c-0.1-0.1-0.1-0.2-0.2-0.3l-5-5c-0.4-0.4-1-0.4-1.4,0s-0.4,1,0,1.4l3.3,3.3H6
		c-0.8,0-1.6-0.3-2.1-0.9C3.3,10.6,3,9.8,3,9V2c0-0.6-0.4-1-1-1S1,1.4,1,2v7c0,1.3,0.5,2.6,1.5,3.5C3.4,13.5,4.7,14,6,14h9.6
		l-3.3,3.3c-0.4,0.4-0.4,1,0,1.4c0.2,0.2,0.5,0.3,0.7,0.3s0.5-0.1,0.7-0.3l5-5C18.8,13.6,18.9,13.5,18.9,13.4z"/>
</g>
<g id="arrow-down">
	<path class="st0" d="M13.1,7.5L10,10.6L6.9,7.5L6,8.5l4,4l4-4L13.1,7.5z"/>
</g>
<g id="arrow-up">
	<path class="st0" d="M6.9,12.5L10,9.4l3.1,3.1l0.9-1l-4-4l-4,4L6.9,12.5z"/>
</g>
</svg>
